<svg width="1230" height="1110" viewBox="0 0 1230 1110" fill="none" xmlns="http://www.w3.org/2000/svg">
<circle cx="15" cy="15" r="15" fill="#C4C4C4"/>
<circle cx="135" cy="15" r="15" fill="#C4C4C4"/>
<circle cx="255" cy="15" r="15" fill="#C4C4C4"/>
<circle cx="375" cy="15" r="15" fill="#C4C4C4"/>
<circle cx="15" cy="15" r="15" fill="#C4C4C4"/>
<circle cx="375" cy="15" r="15" fill="#C4C4C4"/>
<circle cx="495" cy="15" r="15" fill="#C4C4C4"/>
<circle cx="615" cy="15" r="15" fill="#C4C4C4"/>
<circle cx="735" cy="15" r="15" fill="#C4C4C4"/>
<circle cx="855" cy="15" r="15" fill="#C4C4C4"/>
<circle cx="495" cy="15" r="15" fill="#C4C4C4"/>
<circle cx="855" cy="15" r="15" fill="#C4C4C4"/>
<circle cx="975" cy="15" r="15" fill="#C4C4C4"/>
<circle cx="1095" cy="15" r="15" fill="#C4C4C4"/>
<circle cx="1215" cy="15" r="15" fill="#C4C4C4"/>
<circle cx="15" cy="135" r="15" fill="#C4C4C4"/>
<circle cx="135" cy="135" r="15" fill="#C4C4C4"/>
<circle cx="255" cy="135" r="15" fill="#C4C4C4"/>
<circle cx="375" cy="135" r="15" fill="#C4C4C4"/>
<circle cx="15" cy="135" r="15" fill="#C4C4C4"/>
<circle cx="375" cy="135" r="15" fill="#C4C4C4"/>
<circle cx="495" cy="135" r="15" fill="#C4C4C4"/>
<circle cx="615" cy="135" r="15" fill="#C4C4C4"/>
<circle cx="735" cy="135" r="15" fill="#C4C4C4"/>
<circle cx="855" cy="135" r="15" fill="#C4C4C4"/>
<circle cx="495" cy="135" r="15" fill="#C4C4C4"/>
<circle cx="855" cy="135" r="15" fill="#C4C4C4"/>
<circle cx="975" cy="135" r="15" fill="#C4C4C4"/>
<circle cx="1095" cy="135" r="15" fill="#C4C4C4"/>
<circle cx="1215" cy="135" r="15" fill="#C4C4C4"/>
<circle cx="15" cy="255" r="15" fill="#C4C4C4"/>
<circle cx="135" cy="255" r="15" fill="#C4C4C4"/>
<circle cx="255" cy="255" r="15" fill="#C4C4C4"/>
<circle cx="375" cy="255" r="15" fill="#C4C4C4"/>
<circle cx="15" cy="255" r="15" fill="#C4C4C4"/>
<circle cx="375" cy="255" r="15" fill="#C4C4C4"/>
<circle cx="495" cy="255" r="15" fill="#C4C4C4"/>
<circle cx="615" cy="255" r="15" fill="#C4C4C4"/>
<circle cx="735" cy="255" r="15" fill="#C4C4C4"/>
<circle cx="855" cy="255" r="15" fill="#C4C4C4"/>
<circle cx="495" cy="255" r="15" fill="#C4C4C4"/>
<circle cx="855" cy="255" r="15" fill="#C4C4C4"/>
<circle cx="975" cy="255" r="15" fill="#C4C4C4"/>
<circle cx="1095" cy="255" r="15" fill="#C4C4C4"/>
<circle cx="1215" cy="255" r="15" fill="#C4C4C4"/>
<circle cx="15" cy="375" r="15" fill="#C4C4C4"/>
<circle cx="135" cy="375" r="15" fill="#C4C4C4"/>
<circle cx="255" cy="375" r="15" fill="#C4C4C4"/>
<circle cx="375" cy="375" r="15" fill="#C4C4C4"/>
<circle cx="15" cy="375" r="15" fill="#C4C4C4"/>
<circle cx="375" cy="375" r="15" fill="#C4C4C4"/>
<circle cx="495" cy="375" r="15" fill="#C4C4C4"/>
<circle cx="615" cy="375" r="15" fill="#C4C4C4"/>
<circle cx="735" cy="375" r="15" fill="#C4C4C4"/>
<circle cx="855" cy="375" r="15" fill="#C4C4C4"/>
<circle cx="495" cy="375" r="15" fill="#C4C4C4"/>
<circle cx="855" cy="375" r="15" fill="#C4C4C4"/>
<circle cx="975" cy="375" r="15" fill="#C4C4C4"/>
<circle cx="1095" cy="375" r="15" fill="#C4C4C4"/>
<circle cx="1215" cy="375" r="15" fill="#C4C4C4"/>
<circle cx="15" cy="495" r="15" fill="#C4C4C4"/>
<circle cx="135" cy="495" r="15" fill="#C4C4C4"/>
<circle cx="255" cy="495" r="15" fill="#C4C4C4"/>
<circle cx="375" cy="495" r="15" fill="#C4C4C4"/>
<circle cx="15" cy="495" r="15" fill="#C4C4C4"/>
<circle cx="375" cy="495" r="15" fill="#C4C4C4"/>
<circle cx="495" cy="495" r="15" fill="#C4C4C4"/>
<circle cx="615" cy="495" r="15" fill="#C4C4C4"/>
<circle cx="735" cy="495" r="15" fill="#C4C4C4"/>
<circle cx="855" cy="495" r="15" fill="#C4C4C4"/>
<circle cx="495" cy="495" r="15" fill="#C4C4C4"/>
<circle cx="855" cy="495" r="15" fill="#C4C4C4"/>
<circle cx="975" cy="495" r="15" fill="#C4C4C4"/>
<circle cx="1095" cy="495" r="15" fill="#C4C4C4"/>
<circle cx="1215" cy="495" r="15" fill="#C4C4C4"/>
<circle cx="15" cy="615" r="15" fill="#C4C4C4"/>
<circle cx="135" cy="615" r="15" fill="#C4C4C4"/>
<circle cx="255" cy="615" r="15" fill="#C4C4C4"/>
<circle cx="375" cy="615" r="15" fill="#C4C4C4"/>
<circle cx="15" cy="615" r="15" fill="#C4C4C4"/>
<circle cx="375" cy="615" r="15" fill="#C4C4C4"/>
<circle cx="495" cy="615" r="15" fill="#C4C4C4"/>
<circle cx="615" cy="615" r="15" fill="#C4C4C4"/>
<circle cx="735" cy="615" r="15" fill="#C4C4C4"/>
<circle cx="855" cy="615" r="15" fill="#C4C4C4"/>
<circle cx="495" cy="615" r="15" fill="#C4C4C4"/>
<circle cx="855" cy="615" r="15" fill="#C4C4C4"/>
<circle cx="975" cy="615" r="15" fill="#C4C4C4"/>
<circle cx="1095" cy="615" r="15" fill="#C4C4C4"/>
<circle cx="1215" cy="615" r="15" fill="#C4C4C4"/>
<circle cx="15" cy="735" r="15" fill="#C4C4C4"/>
<circle cx="135" cy="735" r="15" fill="#C4C4C4"/>
<circle cx="255" cy="735" r="15" fill="#C4C4C4"/>
<circle cx="375" cy="735" r="15" fill="#C4C4C4"/>
<circle cx="15" cy="735" r="15" fill="#C4C4C4"/>
<circle cx="375" cy="735" r="15" fill="#C4C4C4"/>
<circle cx="495" cy="735" r="15" fill="#C4C4C4"/>
<circle cx="615" cy="735" r="15" fill="#C4C4C4"/>
<circle cx="735" cy="735" r="15" fill="#C4C4C4"/>
<circle cx="855" cy="735" r="15" fill="#C4C4C4"/>
<circle cx="495" cy="735" r="15" fill="#C4C4C4"/>
<circle cx="855" cy="735" r="15" fill="#C4C4C4"/>
<circle cx="975" cy="735" r="15" fill="#C4C4C4"/>
<circle cx="1095" cy="735" r="15" fill="#C4C4C4"/>
<circle cx="1215" cy="735" r="15" fill="#C4C4C4"/>
<circle cx="15" cy="855" r="15" fill="#C4C4C4"/>
<circle cx="135" cy="855" r="15" fill="#C4C4C4"/>
<circle cx="255" cy="855" r="15" fill="#C4C4C4"/>
<circle cx="375" cy="855" r="15" fill="#C4C4C4"/>
<circle cx="15" cy="855" r="15" fill="#C4C4C4"/>
<circle cx="375" cy="855" r="15" fill="#C4C4C4"/>
<circle cx="495" cy="855" r="15" fill="#C4C4C4"/>
<circle cx="615" cy="855" r="15" fill="#C4C4C4"/>
<circle cx="735" cy="855" r="15" fill="#C4C4C4"/>
<circle cx="855" cy="855" r="15" fill="#C4C4C4"/>
<circle cx="495" cy="855" r="15" fill="#C4C4C4"/>
<circle cx="855" cy="855" r="15" fill="#C4C4C4"/>
<circle cx="975" cy="855" r="15" fill="#C4C4C4"/>
<circle cx="1095" cy="855" r="15" fill="#C4C4C4"/>
<circle cx="1215" cy="855" r="15" fill="#C4C4C4"/>
<circle cx="15" cy="975" r="15" fill="#C4C4C4"/>
<circle cx="135" cy="975" r="15" fill="#C4C4C4"/>
<circle cx="255" cy="975" r="15" fill="#C4C4C4"/>
<circle cx="375" cy="975" r="15" fill="#C4C4C4"/>
<circle cx="15" cy="975" r="15" fill="#C4C4C4"/>
<circle cx="375" cy="975" r="15" fill="#C4C4C4"/>
<circle cx="495" cy="975" r="15" fill="#C4C4C4"/>
<circle cx="615" cy="975" r="15" fill="#C4C4C4"/>
<circle cx="735" cy="975" r="15" fill="#C4C4C4"/>
<circle cx="855" cy="975" r="15" fill="#C4C4C4"/>
<circle cx="495" cy="975" r="15" fill="#C4C4C4"/>
<circle cx="855" cy="975" r="15" fill="#C4C4C4"/>
<circle cx="975" cy="975" r="15" fill="#C4C4C4"/>
<circle cx="1095" cy="975" r="15" fill="#C4C4C4"/>
<circle cx="1215" cy="975" r="15" fill="#C4C4C4"/>
<circle cx="15" cy="1095" r="15" fill="#C4C4C4"/>
<circle cx="135" cy="1095" r="15" fill="#C4C4C4"/>
<circle cx="255" cy="1095" r="15" fill="#C4C4C4"/>
<circle cx="375" cy="1095" r="15" fill="#C4C4C4"/>
<circle cx="15" cy="1095" r="15" fill="#C4C4C4"/>
<circle cx="375" cy="1095" r="15" fill="#C4C4C4"/>
<circle cx="495" cy="1095" r="15" fill="#C4C4C4"/>
<circle cx="615" cy="1095" r="15" fill="#C4C4C4"/>
<circle cx="735" cy="1095" r="15" fill="#C4C4C4"/>
<circle cx="855" cy="1095" r="15" fill="#C4C4C4"/>
<circle cx="495" cy="1095" r="15" fill="#C4C4C4"/>
<circle cx="855" cy="1095" r="15" fill="#C4C4C4"/>
<circle cx="975" cy="1095" r="15" fill="#C4C4C4"/>
<circle cx="1095" cy="1095" r="15" fill="#C4C4C4"/>
<circle cx="1215" cy="1095" r="15" fill="#C4C4C4"/>
</svg>
