<svg width="156" height="52" viewBox="0 0 156 52" fill="none" xmlns="http://www.w3.org/2000/svg">
<path fill-rule="evenodd" clip-rule="evenodd" d="M20.5303 51.8C17.7703 51.8 15.1898 51.43 12.7998 50.68C10.4598 49.88 8.40012 48.71 6.62012 47.17C4.89012 45.62 3.50973 43.68 2.46973 41.34C1.48973 39 0.990234 36.26 0.990234 33.12C0.990234 30.03 1.47973 27.38 2.46973 25.18C3.49973 22.93 4.83973 21.1 6.46973 19.7C8.10973 18.25 9.97984 17.19 12.0898 16.54C14.1998 15.84 16.3498 15.49 18.5498 15.49C21.0298 15.49 23.2798 15.86 25.2998 16.61C27.3598 17.36 29.1203 18.39 30.5703 19.7C32.0703 21.01 33.2198 22.58 34.0098 24.41C34.8498 26.24 35.2695 28.23 35.2695 30.38C35.2695 31.97 34.8304 33.19 33.9404 34.03C33.0504 34.87 31.8097 35.41 30.2197 35.65L12.8701 38.25C13.3901 39.8 14.4403 40.97 16.0303 41.76C17.6203 42.51 19.4498 42.88 21.5098 42.88C23.4298 42.88 25.2299 42.65 26.9199 42.18C28.6499 41.66 30.0596 41.08 31.1396 40.42C31.8896 40.89 32.52 41.54 33.04 42.39C33.56 43.23 33.8096 44.12 33.8096 45.06C33.8096 47.17 32.8304 48.74 30.8604 49.77C29.3604 50.57 27.6698 51.11 25.7998 51.39C23.9298 51.67 22.1703 51.81 20.5303 51.81V51.8ZM18.5596 24.19C17.4396 24.19 16.4504 24.38 15.6104 24.75C14.8104 25.12 14.1596 25.62 13.6396 26.23C13.1196 26.79 12.7302 27.45 12.4502 28.2C12.2202 28.9 12.0803 29.63 12.0303 30.38L24.04 28.41C23.9 27.47 23.3802 26.54 22.4902 25.6C21.6002 24.66 20.2896 24.19 18.5596 24.19ZM55.0801 15.48C57.6101 15.48 59.8997 15.74 61.9697 16.25C64.0797 16.77 65.8596 17.56 67.3096 18.64C68.8096 19.67 69.96 21.01 70.75 22.64C71.55 24.23 71.9404 26.13 71.9404 28.33V44.07C71.9404 45.29 71.5896 46.3 70.8896 47.09C70.2296 47.84 69.44 48.5 68.5 49.06C65.46 50.89 61.1696 51.8 55.6396 51.8C53.1596 51.8 50.9096 51.57 48.8896 51.1C46.9196 50.63 45.2098 49.93 43.7598 48.99C42.3498 48.05 41.25 46.86 40.46 45.41C39.71 43.96 39.3398 42.27 39.3398 40.35C39.3398 37.12 40.2997 34.64 42.2197 32.9C44.1397 31.17 47.1196 30.09 51.1396 29.67L60.3398 28.69V28.2C60.3398 26.84 59.7298 25.88 58.5098 25.32C57.3398 24.71 55.6299 24.41 53.3799 24.41C51.5999 24.41 49.8697 24.6 48.1797 24.97C46.4897 25.34 44.9704 25.81 43.6104 26.38C43.0004 25.96 42.4896 25.33 42.0596 24.48C41.6396 23.59 41.4297 22.68 41.4297 21.74C41.4297 20.52 41.7095 19.56 42.2695 18.86C42.8795 18.11 43.7898 17.48 45.0098 16.96C46.3698 16.44 47.96 16.07 49.79 15.84C51.66 15.61 53.4196 15.49 55.0596 15.49L55.0801 15.48ZM55.6396 43.09C56.4396 43.09 57.3002 43.02 58.2402 42.88C59.2202 42.69 59.9499 42.46 60.4199 42.18V36.56L55.3604 36.98C54.0504 37.07 52.9699 37.35 52.1299 37.82C51.2899 38.29 50.8701 38.99 50.8701 39.93C50.8701 40.87 51.2199 41.64 51.9199 42.25C52.6699 42.81 53.9096 43.09 55.6396 43.09ZM91.1904 38.94C91.1904 40.16 91.5596 41.02 92.3096 41.54C93.1096 42.06 94.2104 42.31 95.6104 42.31C96.3104 42.31 97.04 42.26 97.79 42.17C98.54 42.03 99.1998 41.87 99.7598 41.68C100.18 42.2 100.53 42.78 100.81 43.44C101.14 44.05 101.3 44.8 101.3 45.69C101.3 47.47 100.62 48.92 99.2598 50.05C97.9498 51.17 95.6105 51.74 92.2305 51.74C88.1105 51.74 84.9199 50.8 82.6699 48.93C80.4699 47.06 79.3701 44.01 79.3701 39.8V9.72998C79.8901 9.58998 80.6098 9.44997 81.5498 9.30997C82.5298 9.11997 83.5596 9.02997 84.6396 9.02997C86.6996 9.02997 88.2899 9.39996 89.4199 10.15C90.5899 10.85 91.1797 12.38 91.1797 14.72V19.22H100.38C100.66 19.74 100.92 20.39 101.15 21.19C101.43 21.94 101.57 22.78 101.57 23.72C101.57 25.36 101.2 26.55 100.45 27.3C99.7502 28 98.7903 28.35 97.5703 28.35H91.1797V38.96L91.1904 38.94ZM107.1 7.03998C107.1 5.25998 107.69 3.75998 108.86 2.53998C110.08 1.31998 111.67 0.709961 113.64 0.709961C115.61 0.709961 117.18 1.31998 118.35 2.53998C119.57 3.75998 120.18 5.25998 120.18 7.03998C120.18 8.81998 119.57 10.32 118.35 11.54C117.18 12.76 115.61 13.37 113.64 13.37C111.67 13.37 110.08 12.76 108.86 11.54C107.69 10.32 107.1 8.81998 107.1 7.03998ZM119.61 50.6C119.09 50.69 118.32 50.81 117.29 50.95C116.31 51.14 115.3 51.23 114.27 51.23C113.24 51.23 112.3 51.16 111.46 51.02C110.66 50.88 109.98 50.6 109.42 50.18C108.86 49.76 108.41 49.2 108.09 48.49C107.81 47.74 107.67 46.78 107.67 45.61V17.01C108.19 16.92 108.93 16.8 109.92 16.66C110.95 16.47 111.98 16.38 113.01 16.38C114.04 16.38 114.95 16.45 115.75 16.59C116.59 16.73 117.3 17.01 117.86 17.43C118.42 17.85 118.84 18.44 119.12 19.19C119.45 19.89 119.61 20.83 119.61 22V50.6ZM128.41 50.67C127.66 50.01 127.05 49.24 126.58 48.35C126.16 47.46 125.95 46.45 125.95 45.33C125.95 44.39 126.16 43.48 126.58 42.59C127.05 41.65 127.61 40.79 128.27 39.99L140.36 25.8H127.43C127.15 25.28 126.87 24.63 126.59 23.83C126.36 23.03 126.24 22.17 126.24 21.23C126.24 19.59 126.59 18.42 127.29 17.72C128.04 16.97 129.02 16.6 130.24 16.6H152.37C153.12 17.26 153.7 18.03 154.13 18.92C154.6 19.81 154.83 20.82 154.83 21.94C154.83 22.88 154.6 23.81 154.13 24.75C153.71 25.64 153.17 26.48 152.51 27.28L140.71 41.47H154.48C154.76 41.99 155.02 42.64 155.25 43.44C155.53 44.24 155.67 45.1 155.67 46.04C155.67 47.68 155.3 48.87 154.55 49.62C153.85 50.32 152.89 50.67 151.67 50.67H128.41V50.67Z" fill="#FE043C"/>
</svg>
