<svg width="149" height="119" viewBox="0 0 149 119" fill="none" xmlns="http://www.w3.org/2000/svg">
<path d="M19.0703 113.23C18.9403 106.96 8.76953 109.23 8.76953 105.07C8.76953 103.66 10.0504 102.64 12.1904 102.64C14.5304 102.64 15.87 103.92 16 105.68H18.9102C18.7202 102.26 16.16 100.18 12.29 100.18C8.39004 100.18 5.86035 102.39 5.86035 105.08C5.86035 111.61 16.2305 109.34 16.2305 113.24C16.2305 114.68 14.9504 115.83 12.6504 115.83C10.1904 115.83 8.67953 114.55 8.51953 112.85H5.50977C5.69977 116.05 8.57969 118.29 12.6797 118.29C16.5497 118.29 19.0801 116.11 19.0801 113.23H19.0703ZM29.9805 102.64C32.9905 102.64 35.5495 104.53 35.5195 107.95H24.4502C24.7702 104.53 27.1402 102.64 29.9902 102.64H29.9805ZM38.1699 112.59H35.0303C34.3903 114.48 32.7296 115.82 30.0996 115.82C27.1196 115.82 24.6304 113.87 24.4004 110.32H38.4199C38.4799 109.71 38.5195 109.2 38.5195 108.56C38.5195 103.76 35.1896 100.18 30.0996 100.18C24.9796 100.18 21.4297 103.67 21.4297 109.2C21.4297 114.77 25.1096 118.29 30.0996 118.29C34.4496 118.29 37.2702 115.79 38.1602 112.59H38.1699ZM49.1797 102.64C52.1897 102.64 54.7497 104.53 54.7197 107.95H43.6504C43.9704 104.53 46.3404 102.64 49.1904 102.64H49.1797ZM57.3701 112.59H54.2305C53.5905 114.48 51.9298 115.82 49.2998 115.82C46.3198 115.82 43.8296 113.87 43.5996 110.32H57.6201C57.6801 109.71 57.7197 109.2 57.7197 108.56C57.7197 103.76 54.3898 100.18 49.2998 100.18C44.1798 100.18 40.6299 103.67 40.6299 109.2C40.6299 114.77 44.3098 118.29 49.2998 118.29C53.6498 118.29 56.4704 115.79 57.3604 112.59H57.3701ZM94.1396 118H97.0195V107.66C97.0195 102.64 93.9199 100.14 89.9199 100.14C87.2299 100.14 84.74 101.52 83.71 104.04C82.56 101.42 80.1603 100.14 77.2803 100.14C74.9803 100.14 72.9002 101.13 71.7402 102.99V100.46H68.8301V118H71.7402V108.34C71.7402 104.56 73.7602 102.68 76.7002 102.68C79.5802 102.68 81.5 104.5 81.5 108.09V118.01H84.3799V108.35C84.3799 104.57 86.3998 102.69 89.3398 102.69C92.2198 102.69 94.1396 104.51 94.1396 108.1V118ZM117.79 109.2C117.79 103.66 113.92 100.18 108.93 100.18C103.97 100.18 100.07 103.67 100.07 109.2C100.07 114.77 103.85 118.29 108.81 118.29C113.8 118.29 117.8 114.77 117.8 109.2H117.79ZM103.04 109.2C103.04 104.78 105.82 102.7 108.9 102.7C111.91 102.7 114.82 104.78 114.82 109.2C114.82 113.65 111.84 115.73 108.8 115.73C105.76 115.73 103.04 113.65 103.04 109.2ZM123.9 108.46C123.9 104.4 126.01 103.15 128.8 103.15H129.57V100.14C126.79 100.14 124.9 101.36 123.91 103.31V100.46H121V118H123.91L123.9 108.46ZM139.74 102.64C142.75 102.64 145.31 104.53 145.28 107.95H134.21C134.53 104.53 136.9 102.64 139.75 102.64H139.74ZM147.93 112.59H144.79C144.15 114.48 142.49 115.82 139.86 115.82C136.88 115.82 134.39 113.87 134.16 110.32H148.18C148.24 109.71 148.28 109.2 148.28 108.56C148.28 103.76 144.95 100.18 139.86 100.18C134.74 100.18 131.19 103.67 131.19 109.2C131.19 114.77 134.87 118.29 139.86 118.29C144.21 118.29 147.03 115.79 147.92 112.59H147.93Z" fill="#FE043C"/>
<path d="M77.5 44C65.61 44 56 34.61 56 23C56 11.39 65.61 2 77.5 2C89.39 2 99 11.39 99 23C99 34.61 89.39 44 77.5 44Z" fill="#FE043C" stroke="#FE043C" stroke-width="4"/>
<path d="M70.4902 13.46L84.2695 21.98L70.4902 30.3" stroke="white" stroke-width="4"/>
<path d="M0.5 22.3601H67.4404" stroke="#FE043C" stroke-width="4"/>
</svg>
